<svg width="30" height="30" viewBox="0 0 30 30" fill="none" xmlns="http://www.w3.org/2000/svg">
<path d="M15 0.21875C6.97266 0.21875 0.46875 6.72266 0.46875 14.75C0.46875 22.7773 6.97266 29.2812 15 29.2812C23.0273 29.2812 29.5312 22.7773 29.5312 14.75C29.5312 6.72266 23.0273 0.21875 15 0.21875ZM15 26.4688C8.49609 26.4688 3.28125 21.2539 3.28125 14.75C3.28125 8.30469 8.49609 3.03125 15 3.03125C21.4453 3.03125 26.7188 8.30469 26.7188 14.75C26.7188 21.2539 21.4453 26.4688 15 26.4688ZM20.918 11.1172C21.2109 10.8828 21.2109 10.4141 20.918 10.1211L19.6289 8.83203C19.3359 8.53906 18.8672 8.53906 18.6328 8.83203L15 12.4648L11.3086 8.83203C11.0742 8.53906 10.6055 8.53906 10.3125 8.83203L9.02344 10.1211C8.73047 10.4141 8.73047 10.8828 9.02344 11.1172L12.6562 14.75L9.02344 18.4414C8.73047 18.6758 8.73047 19.1445 9.02344 19.4375L10.3125 20.7266C10.6055 21.0195 11.0742 21.0195 11.3086 20.7266L15 17.0938L18.6328 20.7266C18.8672 21.0195 19.3359 21.0195 19.6289 20.7266L20.918 19.4375C21.2109 19.1445 21.2109 18.6758 20.918 18.4414L17.2852 14.75L20.918 11.1172Z" fill="#555555"/>
</svg>
