<svg viewBox="0 0 30 30" fill="none" xmlns="http://www.w3.org/2000/svg" width="26" height="26" title="Menu"><path d="M26.844 8.281a.665.665 0 00.656-.656v-1.75c0-.328-.328-.656-.656-.656H3.656A.665.665 0 003 5.875v1.75c0 .383.273.656.656.656h23.188zm0 8.75a.665.665 0 00.656-.656v-1.75c0-.328-.328-.656-.656-.656H3.656a.665.665 0 00-.656.656v1.75c0 .383.273.656.656.656h23.188zm0 8.75a.665.665 0 00.656-.656v-1.75c0-.328-.328-.656-.656-.656H3.656a.665.665 0 00-.656.656v1.75c0 .383.273.656.656.656h23.188z" fill="currentColor"></path></svg>