<svg viewBox="0 0 30 30" fill="none" xmlns="http://www.w3.org/2000/svg" width="30" height="30" class="SocialMediaLinks_m-social-media-links__icon__aLbPt"><path fill-rule="evenodd" clip-rule="evenodd" d="M9.64 2.078C11.027 2.014 11.47 2 15 2c3.531 0 3.973.015 5.358.078 1.386.063 2.33.284 3.158.604.867.327 1.652.839 2.302 1.5a6.35 6.35 0 011.499 2.302c.321.827.541 1.773.605 3.155.064 1.389.078 1.83.078 5.361 0 3.531-.015 3.973-.078 5.36-.063 1.382-.284 2.328-.605 3.155a6.378 6.378 0 01-1.499 2.303 6.375 6.375 0 01-2.302 1.499c-.827.321-1.772.541-3.155.605-1.388.064-1.83.078-5.361.078-3.531 0-3.973-.015-5.36-.078-1.382-.063-2.328-.284-3.155-.605a6.378 6.378 0 01-2.303-1.499 6.372 6.372 0 01-1.5-2.302c-.32-.827-.54-1.772-.604-3.155C2.014 18.972 2 18.53 2 15c0-3.531.015-3.973.078-5.358.063-1.385.284-2.33.604-3.158a6.377 6.377 0 011.5-2.302 6.372 6.372 0 012.302-1.5c.827-.32 1.773-.54 3.155-.604h.001zm10.613 2.34c-1.37-.063-1.782-.076-5.253-.076s-3.882.013-5.253.076c-1.268.058-1.956.27-2.415.448a4.037 4.037 0 00-1.495.971c-.431.42-.763.93-.971 1.495-.179.459-.39 1.147-.448 2.415-.063 1.37-.076 1.782-.076 5.253s.013 3.882.076 5.253c.058 1.268.27 1.956.448 2.415.208.563.54 1.075.971 1.495.42.431.932.763 1.495.971.459.178 1.147.39 2.415.448 1.37.063 1.78.076 5.253.076 3.472 0 3.882-.013 5.253-.076 1.268-.058 1.956-.27 2.415-.448a4.037 4.037 0 001.495-.971c.431-.42.763-.932.971-1.495.178-.459.39-1.147.448-2.415.063-1.37.076-1.782.076-5.253s-.013-3.882-.076-5.253c-.058-1.268-.27-1.956-.448-2.415a4.037 4.037 0 00-.971-1.495 4.033 4.033 0 00-1.495-.971c-.459-.179-1.147-.39-2.415-.448zm-6.914 14.59a4.335 4.335 0 004.728-7.075 4.336 4.336 0 10-4.728 7.075zm-3.064-8.733a6.682 6.682 0 119.45 9.45 6.682 6.682 0 01-9.45-9.45zm12.889-.962A1.579 1.579 0 1020.93 7.08a1.58 1.58 0 002.234 2.234z" fill="currentColor"></path></svg>