<svg viewBox="0 0 30 31" fill="none" xmlns="http://www.w3.org/2000/svg" width="10" height="10"><path d="M15 .75C8.73.75 3.75 5.848 3.75 12c0 4.219 1.348 5.508 8.848 17.46a2.795 2.795 0 004.746 0C24.844 17.509 26.25 16.22 26.25 12 26.25 5.79 21.152.75 15 .75zm0 27.188C7.5 15.983 6.562 15.223 6.562 12c0-4.629 3.75-8.438 8.438-8.438 4.629 0 8.438 3.81 8.438 8.438 0 3.223-.938 3.867-8.438 15.938zM10.312 12c0 2.637 2.051 4.688 4.688 4.688A4.664 4.664 0 0019.688 12 4.701 4.701 0 0015 7.312 4.664 4.664 0 0010.312 12z" fill="currentColor"></path></svg>