<svg viewBox="0 0 30 31" fill="none" xmlns="http://www.w3.org/2000/svg" width="30" height="30" class="SocialMediaLinks_m-social-media-links__icon__aLbPt"><path d="M10.957 9.773c-1.992 0-3.574 1.524-3.574 3.399s1.582 3.398 3.574 3.398c1.992 0 3.633-1.523 3.633-3.398 0-1.875-1.641-3.399-3.633-3.399zm8.437 0c-1.992 0-3.632 1.524-3.632 3.399s1.64 3.398 3.632 3.398c1.993 0 3.575-1.523 3.575-3.398 0-1.875-1.582-3.399-3.575-3.399zm9.14 5.274l-.35.234V3.68c0-1.582-1.172-2.93-2.696-2.93H4.453c-1.465 0-2.695 1.348-2.695 2.93V15.28a1.223 1.223 0 01-.352-.234c-.879-.586-1.465.234-.937 1.055 1.054 1.289 3.105 2.93 6.21 4.218-3.28 11.25 8.086 13.008 7.852 7.266 0-.059.059-3.34.059-5.684.293.059.527.176.761.176 0 2.344.059 5.45.059 5.508-.176 5.742 11.133 3.984 7.852-7.266 3.105-1.289 5.156-2.87 6.21-4.218.528-.82-.058-1.641-.937-1.055zm-1.757 1.113c-4.043 2.227-7.559 1.817-9.434 1.758-1.406-.059-1.874.527-1.992 1.465-.586-.469-1.054-.938-1.171-.996-.293-.352-.82-.469-1.583-.469-1.875.059-5.273.469-9.199-1.64V5.027c0-2.051.528-2.696 2.344-2.696h18.633c1.758 0 2.402.762 2.402 2.695V16.16z" fill="currentColor"></path></svg>