<svg viewBox="0 0 33 30" fill="none" xmlns="http://www.w3.org/2000/svg" width="30" height="30" class="SocialMediaLinks_m-social-media-links__icon__aLbPt"><path d="M32.293 7.074c-.352-1.406-1.465-2.52-2.813-2.87C26.96 3.5 17 3.5 17 3.5s-10.02 0-12.54.703C3.114 4.555 2 5.668 1.649 7.074.945 9.535.945 14.81.945 14.81s0 5.214.703 7.734c.352 1.406 1.465 2.46 2.813 2.813C6.98 26 17 26 17 26s9.96 0 12.48-.645c1.348-.351 2.461-1.406 2.813-2.812.703-2.52.703-7.734.703-7.734s0-5.274-.703-7.735zm-18.574 12.48v-9.491l8.32 4.746-8.32 4.746z" fill="currentColor"></path></svg>