<svg viewBox="0 0 30 30" fill="none" xmlns="http://www.w3.org/2000/svg" width="10" height="10"><path d="M15 .219C6.973.219.469 6.723.469 14.75c0 8.027 6.504 14.531 14.531 14.531 8.027 0 14.531-6.504 14.531-14.531C29.531 6.723 23.027.219 15 .219zm10.488 9.375h-3.925c-.41-2.11-1.055-3.985-1.875-5.508a11.787 11.787 0 015.8 5.508zM15 3.03c1.055 0 2.813 2.461 3.691 6.563H11.25C12.129 5.492 13.887 3.03 15 3.03zM3.281 14.75c0-.762.059-1.582.235-2.344h4.511c-.058.82-.058 1.582-.058 2.344 0 .82 0 1.582.058 2.344H3.516c-.176-.703-.235-1.524-.235-2.344zm1.172 5.156H8.38c.41 2.168 1.055 4.043 1.875 5.567-2.52-1.114-4.57-3.106-5.8-5.567zM8.38 9.594H4.453a11.786 11.786 0 015.8-5.508C9.434 5.609 8.79 7.484 8.38 9.594zM15 26.469c-1.113 0-2.871-2.403-3.75-6.563h7.441c-.878 4.16-2.636 6.563-3.691 6.563zm4.102-9.375H10.84c-.059-.703-.059-1.524-.059-2.344 0-.82 0-1.582.059-2.344h8.262c.058.762.117 1.524.117 2.344 0 .82-.059 1.64-.117 2.344zm.585 8.379c.82-1.524 1.465-3.399 1.875-5.567h3.926c-1.23 2.461-3.281 4.453-5.8 5.567zm2.227-8.38c.059-.761.117-1.523.117-2.343 0-.762-.058-1.523-.117-2.344h4.57c.118.762.235 1.582.235 2.344 0 .82-.117 1.64-.235 2.344h-4.57z" fill="currentColor"></path></svg>