<svg viewBox="0 0 30 31" fill="none" xmlns="http://www.w3.org/2000/svg" width="30" height="30" class="SocialMediaLinks_m-social-media-links__icon__aLbPt"><path d="M7.734 27V9.48H2.285V27h5.45zM4.98 7.137c1.758 0 3.165-1.465 3.165-3.223C8.145 2.214 6.738.81 4.98.81a3.126 3.126 0 00-3.105 3.105c0 1.758 1.406 3.223 3.105 3.223zM28.066 27h.059v-9.61c0-4.687-1.055-8.32-6.563-8.32-2.636 0-4.394 1.465-5.156 2.813h-.058V9.48h-5.215V27h5.449v-8.672c0-2.285.41-4.453 3.223-4.453 2.812 0 2.87 2.578 2.87 4.629V27h5.391z" fill="currentColor"></path></svg>