<svg viewBox="0 0 30 30" fill="none" xmlns="http://www.w3.org/2000/svg" width="15" height="12" class="LocationSelectorComponent_o-location-selector-component__locator-icon__mdvnR LocationSelectorComponent__hover-icon__RDXlM inline-block ml-2"><path d="M14.711 4.184l-.982.932c-.246.245-.246.637 0 .833l7.616 7.601H4.59a.597.597 0 00-.59.589v1.373c0 .343.246.588.59.588h16.755l-7.616 7.65c-.246.197-.246.59 0 .834l.982.932c.197.245.59.245.836 0l10.269-10.25a.564.564 0 000-.833l-10.27-10.25c-.245-.244-.638-.244-.835 0z" fill="currentColor"></path></svg>