<svg viewBox="0 0 30 30" fill="none" xmlns="http://www.w3.org/2000/svg" class="HeaderComponent_o-header-component__toggle-icon__AHR9i" width="25" height="25" title="Search"><path fill-rule="evenodd" clip-rule="evenodd" d="M17.238 3.822a9.738 9.738 0 00-5.347-1.59 9.748 9.748 0 00-6.785 2.787 9.425 9.425 0 00-2.827 6.674A9.35 9.35 0 003.9 16.95a9.588 9.588 0 004.319 3.484 9.773 9.773 0 005.56.537 9.673 9.673 0 004.926-2.591 9.413 9.413 0 002.63-4.847 9.315 9.315 0 00-.55-5.467 9.498 9.498 0 00-3.548-4.244zM5.545 2.354A11.56 11.56 0 0111.89.46c3.03 0 5.935 1.183 8.077 3.29a11.138 11.138 0 013.345 7.942 11.1 11.1 0 01-1.925 6.24 11.383 11.383 0 01-5.126 4.137 11.601 11.601 0 01-6.6.639 11.483 11.483 0 01-5.848-3.074 11.175 11.175 0 01-3.126-5.751 11.058 11.058 0 01.65-6.49 11.275 11.275 0 014.207-5.04zm17.256 19.3l6.475 6.412a.863.863 0 01.256.612.853.853 0 01-.26.61.882.882 0 01-.623.251.893.893 0 01-.62-.255l-6.476-6.411 1.248-1.218z" fill="currentColor"></path><path fill-rule="evenodd" clip-rule="evenodd" d="M29.609 27.741a1.322 1.322 0 01.391.939c0 .174-.036.346-.104.506l-.433-.178a.853.853 0 00-.187-.942l-6.475-6.411-1.248 1.218 6.476 6.41a.879.879 0 00.62.256.892.892 0 00.623-.25l.33.326a1.35 1.35 0 01-.954.385 1.367 1.367 0 01-.952-.392l-6.806-6.737 1.913-1.868 6.806 6.738zm-.337 1.547l.33.327c.125-.122.225-.268.294-.429l-.433-.178a.862.862 0 01-.191.28zM16.978 4.205a9.263 9.263 0 00-5.086-1.512 9.275 9.275 0 00-6.454 2.651 8.968 8.968 0 00-2.69 6.35c0 1.78.536 3.52 1.542 5A9.122 9.122 0 008.4 20.009a9.296 9.296 0 005.29.51 9.201 9.201 0 004.685-2.465 8.955 8.955 0 002.503-4.61 8.861 8.861 0 00-.524-5.201 9.035 9.035 0 00-3.375-4.038zm-14.7 7.488a9.425 9.425 0 012.828-6.674 9.748 9.748 0 016.785-2.787 9.738 9.738 0 015.347 1.59 9.498 9.498 0 013.548 4.244 9.315 9.315 0 01.55 5.467 9.413 9.413 0 01-2.63 4.847 9.673 9.673 0 01-4.926 2.591 9.773 9.773 0 01-5.56-.537A9.588 9.588 0 013.9 16.95a9.35 9.35 0 01-1.621-5.257zM5.286 1.97A12.035 12.035 0 0111.89 0c3.153 0 6.178 1.232 8.408 3.425a11.595 11.595 0 013.483 8.268c0 2.312-.698 4.573-2.004 6.496a11.85 11.85 0 01-5.337 4.306 12.078 12.078 0 01-6.87.666 11.954 11.954 0 01-6.088-3.2 11.633 11.633 0 01-3.255-5.987 11.512 11.512 0 01.677-6.756 11.738 11.738 0 014.38-5.247zM11.89.46c-2.26 0-4.468.658-6.346 1.893a11.275 11.275 0 00-4.207 5.04 11.058 11.058 0 00-.65 6.49 11.175 11.175 0 003.126 5.751 11.483 11.483 0 005.848 3.074c2.216.433 4.513.211 6.6-.64a11.383 11.383 0 005.126-4.136 11.1 11.1 0 001.925-6.24c0-2.98-1.203-5.836-3.345-7.942A11.521 11.521 0 0011.89.46z" fill="currentColor"></path></svg>