<svg width="30" height="30" viewBox="0 0 30 30" fill="none" xmlns="http://www.w3.org/2000/svg">
<path fill-rule="evenodd" clip-rule="evenodd" d="M17.2384 3.82218C15.655 2.78365 13.7941 2.23024 11.8908 2.23195C9.34423 2.24558 6.90603 3.24699 5.10613 5.01854C3.30622 6.79009 2.29008 9.1886 2.27854 11.6928C2.27854 13.5643 2.84303 15.3938 3.90059 16.9498C4.95816 18.5058 6.46128 19.7185 8.21981 20.4343C9.97834 21.1501 11.9133 21.3369 13.7798 20.9712C15.6463 20.6054 17.3606 19.7035 18.7058 18.3795C20.051 17.0556 20.9666 15.369 21.3369 13.5332C21.7071 11.6974 21.5153 9.79487 20.7858 8.06628C20.0562 6.33769 18.8217 4.86071 17.2384 3.82218ZM5.54494 2.35368C7.42332 1.11949 9.6317 0.460739 11.8908 0.460739C14.9202 0.460739 17.8255 1.64411 19.9676 3.75053C22.1097 5.85694 23.3131 8.71386 23.3131 11.6928C23.3131 13.9143 22.6432 16.0859 21.3881 17.933C20.133 19.7801 18.3491 21.2197 16.2619 22.0698C14.1748 22.92 11.8781 23.1424 9.66244 22.709C7.44674 22.2756 5.41148 21.2059 3.81405 19.635C2.21662 18.0642 1.12875 16.0628 0.688023 13.884C0.247293 11.7052 0.473492 9.44685 1.33802 7.39446C2.20254 5.34208 3.66656 3.58787 5.54494 2.35368ZM22.8006 21.6548L29.2762 28.0657C29.3575 28.1462 29.4219 28.2417 29.4657 28.3468C29.5095 28.4518 29.5319 28.5643 29.5315 28.6778C29.531 28.7914 29.5079 28.9037 29.4633 29.0084C29.4188 29.1132 29.3537 29.2082 29.2718 29.2882C29.1898 29.3682 29.0927 29.4315 28.9859 29.4746C28.8791 29.5177 28.7647 29.5397 28.6492 29.5393C28.5338 29.5389 28.4195 29.5161 28.313 29.4723C28.2065 29.4285 28.1098 29.3645 28.0285 29.2839L21.553 22.873L22.8006 21.6548Z" fill="#CA4300"/>
<path fill-rule="evenodd" clip-rule="evenodd" d="M29.6086 27.741C29.7333 27.8645 29.8321 28.0109 29.8992 28.172C29.9664 28.333 30.0006 28.5054 30 28.6795C29.9994 28.8535 29.9639 29.0257 29.8956 29.1862L29.4633 29.0084C29.5079 28.9037 29.531 28.7914 29.5315 28.6778C29.5319 28.5643 29.5095 28.4518 29.4657 28.3468C29.4219 28.2417 29.3575 28.1462 29.2762 28.0657L22.8006 21.6548L21.553 22.873L28.0285 29.2839C28.1098 29.3645 28.2065 29.4285 28.313 29.4723C28.4195 29.5161 28.5338 29.5389 28.6492 29.5393C28.7647 29.5397 28.8791 29.5177 28.9859 29.4746C29.0927 29.4315 29.1898 29.3682 29.2718 29.2882L29.6019 29.6152C29.4763 29.7378 29.3274 29.8349 29.1637 29.9009C28.9999 29.9669 28.8245 30.0006 28.6476 30C28.4706 29.9994 28.2955 29.9645 28.1322 29.8973C27.9689 29.8302 27.8207 29.732 27.696 29.6085L20.8903 22.8707L22.8029 21.0032L29.6086 27.741ZM29.2718 29.2882L29.6019 29.6152C29.7275 29.4925 29.8273 29.3468 29.8956 29.1862L29.4633 29.0084C29.4188 29.1132 29.3537 29.2082 29.2718 29.2882ZM16.9784 4.20548C15.4725 3.21772 13.7025 2.69127 11.8923 2.69268C9.46957 2.70593 7.14999 3.65876 5.43759 5.34418C3.72519 7.0296 2.75834 9.3114 2.74708 11.6938C2.74729 13.4738 3.28427 15.2139 4.29014 16.6938C5.2962 18.174 6.72612 19.3276 8.39901 20.0086C10.0719 20.6895 11.9126 20.8673 13.6882 20.5193C15.4639 20.1714 17.0947 19.3134 18.3744 18.0539C19.654 16.7944 20.5251 15.19 20.8773 13.4436C21.2295 11.6972 21.047 9.8873 20.353 8.24289C19.659 6.59848 18.4846 5.19343 16.9784 4.20548ZM2.27854 11.6928C2.29008 9.1886 3.30622 6.79009 5.10613 5.01854C6.90603 3.24699 9.34423 2.24558 11.8908 2.23195C13.7941 2.23024 15.655 2.78365 17.2384 3.82218C18.8217 4.86071 20.0562 6.33769 20.7858 8.06628C21.5153 9.79487 21.7071 11.6974 21.3369 13.5332C20.9666 15.369 20.051 17.0556 18.7058 18.3795C17.3606 19.7035 15.6463 20.6054 13.7798 20.9712C11.9133 21.3369 9.97834 21.1501 8.21981 20.4343C6.46128 19.7185 4.95816 18.5058 3.90059 16.9498C2.84303 15.3938 2.27854 13.5643 2.27854 11.6928ZM5.28463 1.97059C7.24007 0.68577 9.53903 0 11.8908 0C15.0444 0 18.0689 1.23191 20.2989 3.42474C22.5288 5.61756 23.7816 8.59166 23.7816 11.6928C23.7816 14.0054 23.0842 16.2661 21.7777 18.1889C20.4711 20.1118 18.614 21.6105 16.4412 22.4955C14.2685 23.3805 11.8776 23.612 9.57103 23.1609C7.26444 22.7097 5.1457 21.5961 3.48274 19.9608C1.81978 18.3256 0.687293 16.2421 0.228484 13.9739C-0.230326 11.7057 0.00515231 9.35472 0.905139 7.21814C1.80513 5.08157 3.3292 3.25541 5.28463 1.97059ZM11.8908 0.460739C9.6317 0.460739 7.42332 1.11949 5.54494 2.35368C3.66656 3.58787 2.20254 5.34208 1.33802 7.39446C0.473492 9.44685 0.247293 11.7052 0.688023 13.884C1.12875 16.0628 2.21662 18.0642 3.81405 19.635C5.41148 21.2059 7.44674 22.2756 9.66244 22.709C11.8781 23.1424 14.1748 22.92 16.2619 22.0698C18.3491 21.2197 20.133 19.7801 21.3881 17.933C22.6432 16.0859 23.3131 13.9143 23.3131 11.6928C23.3131 8.71386 22.1097 5.85694 19.9676 3.75053C17.8255 1.64411 14.9202 0.460739 11.8908 0.460739Z" fill="#CA4300"/>
</svg>
